<mxfile host="app.diagrams.net" modified="2021-08-30T16:02:24.567Z" agent="5.0 (Macintosh; Intel Mac OS X 10_15_7) AppleWebKit/537.36 (KHTML, like Gecko) Chrome/81.0.4044.138 Safari/537.36" etag="SODJoB27jTV9zFGkx8qf" version="14.9.3" type="github">
  <diagram id="mwJj6uyiTlnkspCEbciv" name="第 1 页">
    <mxGraphModel dx="946" dy="565" grid="1" gridSize="10" guides="1" tooltips="1" connect="1" arrows="1" fold="1" page="1" pageScale="1" pageWidth="1654" pageHeight="2336" background="#FF9933" math="0" shadow="0">
      <root>
        <mxCell id="0" />
        <mxCell id="1" parent="0" />
        <mxCell id="bAEPXMy_BKyxWU2Utipf-18" value="&lt;div class=&quot;lake-content&quot;&gt;&lt;br&gt;&lt;/div&gt;" style="rounded=1;whiteSpace=wrap;html=1;" vertex="1" parent="1">
          <mxGeometry x="90" y="140" width="160" height="190" as="geometry" />
        </mxCell>
        <mxCell id="bAEPXMy_BKyxWU2Utipf-19" value="页面基本元素" style="rounded=0;whiteSpace=wrap;html=1;" vertex="1" parent="1">
          <mxGeometry x="110" y="170" width="110" height="30" as="geometry" />
        </mxCell>
        <mxCell id="bAEPXMy_BKyxWU2Utipf-20" value="&lt;div class=&quot;lake-content&quot;&gt;&lt;span class=&quot;ne-text&quot;&gt;&lt;font style=&quot;font-size: 14px&quot;&gt;Container&lt;/font&gt;&lt;/span&gt;&lt;/div&gt;" style="text;html=1;strokeColor=none;fillColor=none;align=center;verticalAlign=middle;whiteSpace=wrap;rounded=0;" vertex="1" parent="1">
          <mxGeometry x="135" y="140" width="70" height="30" as="geometry" />
        </mxCell>
        <mxCell id="bAEPXMy_BKyxWU2Utipf-22" value="页面主要逻辑" style="rounded=0;whiteSpace=wrap;html=1;" vertex="1" parent="1">
          <mxGeometry x="110" y="210" width="110" height="30" as="geometry" />
        </mxCell>
        <mxCell id="bAEPXMy_BKyxWU2Utipf-23" value="" style="endArrow=classic;html=1;" edge="1" parent="1">
          <mxGeometry width="50" height="50" relative="1" as="geometry">
            <mxPoint x="250" y="239" as="sourcePoint" />
            <mxPoint x="330" y="239" as="targetPoint" />
          </mxGeometry>
        </mxCell>
        <mxCell id="bAEPXMy_BKyxWU2Utipf-34" value="" style="edgeStyle=orthogonalEdgeStyle;rounded=0;jumpSize=6;orthogonalLoop=1;jettySize=auto;html=1;" edge="1" parent="1" source="bAEPXMy_BKyxWU2Utipf-24">
          <mxGeometry relative="1" as="geometry">
            <mxPoint x="405" y="380" as="targetPoint" />
          </mxGeometry>
        </mxCell>
        <mxCell id="bAEPXMy_BKyxWU2Utipf-24" value="&lt;div class=&quot;lake-content&quot;&gt;&lt;br&gt;&lt;/div&gt;" style="rounded=1;whiteSpace=wrap;html=1;" vertex="1" parent="1">
          <mxGeometry x="330" y="140" width="150" height="190" as="geometry" />
        </mxCell>
        <mxCell id="bAEPXMy_BKyxWU2Utipf-25" value="&lt;font style=&quot;font-size: 14px&quot;&gt;handles&lt;/font&gt;" style="text;html=1;strokeColor=none;fillColor=none;align=center;verticalAlign=middle;whiteSpace=wrap;rounded=0;" vertex="1" parent="1">
          <mxGeometry x="380" y="145" width="50" height="20" as="geometry" />
        </mxCell>
        <mxCell id="bAEPXMy_BKyxWU2Utipf-27" value="订阅组件事件" style="rounded=0;whiteSpace=wrap;html=1;" vertex="1" parent="1">
          <mxGeometry x="350" y="170" width="110" height="30" as="geometry" />
        </mxCell>
        <mxCell id="bAEPXMy_BKyxWU2Utipf-28" value="change增量更改props" style="rounded=0;whiteSpace=wrap;html=1;" vertex="1" parent="1">
          <mxGeometry x="110" y="250" width="110" height="30" as="geometry" />
        </mxCell>
        <mxCell id="bAEPXMy_BKyxWU2Utipf-29" value="fireEvent触发异步时间" style="rounded=0;whiteSpace=wrap;html=1;" vertex="1" parent="1">
          <mxGeometry x="110" y="290" width="110" height="30" as="geometry" />
        </mxCell>
        <mxCell id="bAEPXMy_BKyxWU2Utipf-30" value="处理对应逻辑" style="rounded=0;whiteSpace=wrap;html=1;" vertex="1" parent="1">
          <mxGeometry x="350" y="210" width="110" height="30" as="geometry" />
        </mxCell>
        <mxCell id="bAEPXMy_BKyxWU2Utipf-31" value="更新页面状态" style="rounded=0;whiteSpace=wrap;html=1;" vertex="1" parent="1">
          <mxGeometry x="350" y="250" width="110" height="30" as="geometry" />
        </mxCell>
        <mxCell id="bAEPXMy_BKyxWU2Utipf-32" value="container.on()事件绑定" style="rounded=0;whiteSpace=wrap;html=1;" vertex="1" parent="1">
          <mxGeometry x="350" y="290" width="110" height="30" as="geometry" />
        </mxCell>
        <mxCell id="bAEPXMy_BKyxWU2Utipf-46" value="" style="edgeStyle=orthogonalEdgeStyle;rounded=0;jumpSize=6;orthogonalLoop=1;jettySize=auto;html=1;" edge="1" parent="1" source="bAEPXMy_BKyxWU2Utipf-35" target="bAEPXMy_BKyxWU2Utipf-45">
          <mxGeometry relative="1" as="geometry" />
        </mxCell>
        <mxCell id="bAEPXMy_BKyxWU2Utipf-35" value="&lt;div class=&quot;lake-content&quot;&gt;&lt;br&gt;&lt;/div&gt;" style="rounded=1;whiteSpace=wrap;html=1;" vertex="1" parent="1">
          <mxGeometry x="330" y="380" width="150" height="190" as="geometry" />
        </mxCell>
        <mxCell id="bAEPXMy_BKyxWU2Utipf-36" value="&lt;font style=&quot;font-size: 14px&quot;&gt;validator&lt;/font&gt;" style="text;html=1;strokeColor=none;fillColor=none;align=center;verticalAlign=middle;whiteSpace=wrap;rounded=0;" vertex="1" parent="1">
          <mxGeometry x="385" y="380" width="45" height="30" as="geometry" />
        </mxCell>
        <mxCell id="bAEPXMy_BKyxWU2Utipf-39" value="提交前的校验" style="rounded=0;whiteSpace=wrap;html=1;" vertex="1" parent="1">
          <mxGeometry x="350" y="410" width="110" height="30" as="geometry" />
        </mxCell>
        <mxCell id="bAEPXMy_BKyxWU2Utipf-40" value="&lt;div class=&quot;lake-content&quot;&gt;&lt;span class=&quot;ne-text&quot;&gt;matches()校验方法&lt;/span&gt;&lt;/div&gt;" style="rounded=0;whiteSpace=wrap;html=1;" vertex="1" parent="1">
          <mxGeometry x="350" y="450" width="110" height="30" as="geometry" />
        </mxCell>
        <mxCell id="bAEPXMy_BKyxWU2Utipf-41" value="&lt;div class=&quot;lake-content&quot;&gt;&lt;div class=&quot;lake-content&quot;&gt;&lt;span class=&quot;ne-text&quot;&gt;condition()返回true&lt;/span&gt;&lt;/div&gt;&lt;/div&gt;" style="rounded=0;whiteSpace=wrap;html=1;" vertex="1" parent="1">
          <mxGeometry x="350" y="490" width="110" height="30" as="geometry" />
        </mxCell>
        <mxCell id="bAEPXMy_BKyxWU2Utipf-42" value="&lt;div class=&quot;lake-content&quot;&gt;&lt;div class=&quot;lake-content&quot;&gt;&lt;div class=&quot;lake-content&quot;&gt;&lt;span class=&quot;ne-text&quot;&gt;validator.prepend([])执行顺序&lt;/span&gt;&lt;/div&gt;&lt;/div&gt;&lt;/div&gt;" style="rounded=0;whiteSpace=wrap;html=1;" vertex="1" parent="1">
          <mxGeometry x="350" y="530" width="110" height="30" as="geometry" />
        </mxCell>
        <mxCell id="bAEPXMy_BKyxWU2Utipf-45" value="&lt;div class=&quot;lake-content&quot;&gt;&lt;br&gt;&lt;/div&gt;" style="rounded=1;whiteSpace=wrap;html=1;" vertex="1" parent="1">
          <mxGeometry x="100" y="380" width="150" height="190" as="geometry" />
        </mxCell>
        <mxCell id="bAEPXMy_BKyxWU2Utipf-47" value="&lt;font style=&quot;font-size: 14px&quot;&gt;request&lt;/font&gt;" style="text;html=1;strokeColor=none;fillColor=none;align=center;verticalAlign=middle;whiteSpace=wrap;rounded=0;" vertex="1" parent="1">
          <mxGeometry x="150" y="380" width="50" height="30" as="geometry" />
        </mxCell>
        <mxCell id="bAEPXMy_BKyxWU2Utipf-48" value="container保存草稿前预校验" style="rounded=0;whiteSpace=wrap;html=1;" vertex="1" parent="1">
          <mxGeometry x="120" y="410" width="110" height="30" as="geometry" />
        </mxCell>
        <mxCell id="bAEPXMy_BKyxWU2Utipf-49" value="before请求前的数据处理" style="rounded=0;whiteSpace=wrap;html=1;" vertex="1" parent="1">
          <mxGeometry x="120" y="460" width="110" height="30" as="geometry" />
        </mxCell>
        <mxCell id="bAEPXMy_BKyxWU2Utipf-50" value="success请求成功后反馈" style="rounded=0;whiteSpace=wrap;html=1;" vertex="1" parent="1">
          <mxGeometry x="120" y="510" width="110" height="30" as="geometry" />
        </mxCell>
        <mxCell id="bAEPXMy_BKyxWU2Utipf-55" style="edgeStyle=orthogonalEdgeStyle;rounded=0;jumpSize=6;orthogonalLoop=1;jettySize=auto;html=1;exitX=0.1;exitY=0.5;exitDx=0;exitDy=0;exitPerimeter=0;" edge="1" parent="1" source="bAEPXMy_BKyxWU2Utipf-53">
          <mxGeometry relative="1" as="geometry">
            <mxPoint x="530" y="375" as="targetPoint" />
          </mxGeometry>
        </mxCell>
        <mxCell id="bAEPXMy_BKyxWU2Utipf-53" value="" style="shape=curlyBracket;whiteSpace=wrap;html=1;rounded=1;flipH=1;fillColor=#66FFB3;" vertex="1" parent="1">
          <mxGeometry x="480" y="240" width="60" height="270" as="geometry" />
        </mxCell>
        <mxCell id="bAEPXMy_BKyxWU2Utipf-56" value="串&lt;br&gt;联&lt;br&gt;方&lt;br&gt;法&lt;br&gt;&lt;br&gt;&lt;br&gt;更&lt;br&gt;新&lt;br&gt;数&lt;br&gt;据" style="text;html=1;strokeColor=none;fillColor=none;align=center;verticalAlign=middle;whiteSpace=wrap;rounded=0;" vertex="1" parent="1">
          <mxGeometry x="480" y="350" width="40" height="20" as="geometry" />
        </mxCell>
        <mxCell id="bAEPXMy_BKyxWU2Utipf-61" value="&lt;div class=&quot;lake-content&quot;&gt;&lt;br&gt;&lt;/div&gt;" style="rounded=1;whiteSpace=wrap;html=1;" vertex="1" parent="1">
          <mxGeometry x="540" y="280" width="150" height="190" as="geometry" />
        </mxCell>
        <mxCell id="bAEPXMy_BKyxWU2Utipf-63" value="&lt;font style=&quot;font-size: 14px&quot;&gt;middleware&lt;/font&gt;" style="text;html=1;strokeColor=none;fillColor=none;align=center;verticalAlign=middle;whiteSpace=wrap;rounded=0;" vertex="1" parent="1">
          <mxGeometry x="595" y="280" width="45" height="30" as="geometry" />
        </mxCell>
        <mxCell id="bAEPXMy_BKyxWU2Utipf-64" value="process预处理数据" style="rounded=0;whiteSpace=wrap;html=1;" vertex="1" parent="1">
          <mxGeometry x="559" y="310" width="110" height="30" as="geometry" />
        </mxCell>
        <mxCell id="bAEPXMy_BKyxWU2Utipf-65" value="change改变数据" style="rounded=0;whiteSpace=wrap;html=1;" vertex="1" parent="1">
          <mxGeometry x="560" y="350" width="110" height="30" as="geometry" />
        </mxCell>
        <mxCell id="bAEPXMy_BKyxWU2Utipf-66" value="retObj使change后引起数据变化" style="rounded=0;whiteSpace=wrap;html=1;" vertex="1" parent="1">
          <mxGeometry x="559" y="390" width="110" height="30" as="geometry" />
        </mxCell>
        <mxCell id="bAEPXMy_BKyxWU2Utipf-67" value="reset数据更新" style="rounded=0;whiteSpace=wrap;html=1;" vertex="1" parent="1">
          <mxGeometry x="560" y="430" width="110" height="30" as="geometry" />
        </mxCell>
        <mxCell id="bAEPXMy_BKyxWU2Utipf-68" value="" style="endArrow=classic;html=1;exitX=1;exitY=0.5;exitDx=0;exitDy=0;" edge="1" parent="1" source="bAEPXMy_BKyxWU2Utipf-61">
          <mxGeometry width="50" height="50" relative="1" as="geometry">
            <mxPoint x="690" y="385" as="sourcePoint" />
            <mxPoint x="760" y="375" as="targetPoint" />
          </mxGeometry>
        </mxCell>
        <mxCell id="bAEPXMy_BKyxWU2Utipf-69" value="配置在入口文件index.js中&lt;br&gt;app.run()启动" style="rounded=1;whiteSpace=wrap;html=1;fillColor=#FFFFFF;" vertex="1" parent="1">
          <mxGeometry x="760" y="345" width="120" height="60" as="geometry" />
        </mxCell>
      </root>
    </mxGraphModel>
  </diagram>
</mxfile>
